<svg version="1.1" xmlns="http://www.w3.org/2000/svg" xmlns:xlink="http://www.w3.org/1999/xlink" x="0px" y="0px" viewBox="0 0 256 256" enable-background="new 0 0 256 256" xml:space="preserve">
<metadata> Svg Vector Icons : http://www.onlinewebfonts.com/icon </metadata>
  <g><g><g><path fill="currentColor" d="M10,128v118h118h118V128V10H128H10V128z M238.6,50.6v33.6h-82.3H74.1L48.4,51.1C34.3,33,22.5,17.8,22.3,17.5C22.1,17.1,43.8,17,130.3,17h108.3V50.6z M57.3,74.7c21.7,28.8,39.5,52.7,39.5,53.1c0,0.5-77.1,103.2-79.6,105.9c-0.2,0.2-0.4-47.4-0.4-105.9c0-58.8,0.2-106.2,0.4-105.9C17.6,22.1,35.5,45.8,57.3,74.7z M238.6,127.8v35.7h-79.1c-43.5,0-79.1-0.1-79.1-0.2c0-0.1,6.2-8.1,13.7-17.7c7.5-9.7,13.7-17.7,13.7-17.8c0-0.1-6.2-8.1-13.7-17.8c-7.5-9.6-13.7-17.6-13.7-17.7c0-0.1,35.6-0.2,79.1-0.2h79.1V127.8z M238.6,205v33.6H130.3c-86.5,0-108.2-0.1-107.9-0.6c0.2-0.3,11.9-15.4,26.1-33.6l25.7-33h82.3h82.3L238.6,205L238.6,205z"/></g></g></g>
</svg>
